<?xml version="1.0" encoding="UTF-8"?>
<svg id="Layer_1" xmlns="http://www.w3.org/2000/svg" version="1.1" viewBox="0 0 411.58 117.15">
  <!-- Generator: Adobe Illustrator 30.1.0, SVG Export Plug-In . SVG Version: 2.1.1 Build 136)  -->
  <defs>
    <style>
      .st0 {
        fill: #1cb9d9;
        stroke: #fff;
        stroke-miterlimit: 10;
      }

      .st1 {
        fill: #2bb9ce;
      }

      .st2 {
        fill: #7c93ad;
      }
    </style>
  </defs>
  <path class="st1" d="M216.9,115.59v.08c-7.57-.02-15.15.02-22.72-.02v-.05h22.72Z"/>
  <g>
    <path class="st2" d="M22.84.64v115.95H.01V.66c7.61-.02,15.22,0,22.84-.02h-.01Z"/>
    <path class="st2" d="M147.58,94.22c-4.11,10.87-13.86,19.59-25.25,21.71-3.33.65-6.74.66-10.11.67H27.48v-23.24c29.52,0,59.03.05,88.53-.02,6.13,0,11.32-5.9,10.88-12.04.06-5.87-5.01-11.26-10.85-11.27-13.16-.09-26.31,0-39.47-.03-4.41-.05-8.87.21-13.24-.59-11.49-1.98-21.42-10.67-25.6-21.6-3.51-9.7-2.86-21.07,2.36-30.02,4.63-7.81,12.21-13.98,21.01-16.17,6.06-1.58,12.37-.97,18.56-1.11h59.05c.03,7.72-.05,15.43.05,23.14-23.04.2-46.09,0-69.13.1-5.98-.16-11.39,5.24-11.25,11.31-.36,6.19,5.09,11.89,11.22,11.71,15.25.05,30.48-.02,45.73.02,14.2-.45,27.66,9.39,32.41,22.81,2.71,7.89,2.66,16.76-.17,24.61h0Z"/>
    <path class="st0" d="M153.24.54c37.94-.02,75.88-.02,113.82,0-.03,7.75.07,15.5-.05,23.25-30.3-.11-60.59,0-90.89-.06-.06,23.22-.07,46.45,0,69.67,30.29-.08,60.59.05,90.88-.06.14,7.75.02,15.51.06,23.27-37.94-.03-75.88.02-113.82-.02V.54h0Z"/>
    <path class="st0" d="M274.03.52c7.65.05,15.3-.12,22.94.09,15.15,29.01,30.3,58.02,45.66,86.9,15.05-29.01,30.46-57.84,45.47-86.88,7.66-.24,15.32-.06,22.98-.1v116.05c-7.61.02-15.22,0-22.83.02,0-23.06-.03-46.12.02-69.18-4.2,7.35-7.56,15.17-11.43,22.7-7.64,15.51-15.24,31.04-22.92,46.53-7.57-.1-15.15-.08-22.73-.02-7.6-15.31-15.11-30.67-22.66-46-3.95-7.7-7.4-15.68-11.67-23.21.03,23.07.02,46.13,0,69.2-7.61-.06-15.22,0-22.83-.03V.52Z"/>
    <path class="st0" d="M190.19,49.68h60.86c-.05,6.47.11,12.96-.08,19.43-20.24-.1-40.48-.08-60.71-.01-.16-6.47-.03-12.94-.07-19.42Z"/>
  </g>
</svg>
